<?xml version="1.0" standalone="no"?>
<!DOCTYPE svg PUBLIC "-//W3C//DTD SVG 20010904//EN"
 "http://www.w3.org/TR/2001/REC-SVG-20010904/DTD/svg10.dtd">
<svg version="1.0" xmlns="http://www.w3.org/2000/svg"
 width="834.000000pt" height="834.000000pt" viewBox="0 0 834.000000 834.000000"
 preserveAspectRatio="xMidYMid meet">
<metadata>
Created by potrace 1.11, written by Peter Selinger 2001-2013
</metadata>
<g transform="translate(0.000000,834.000000) scale(0.100000,-0.100000)"
fill="#000000" stroke="none">
<path d="M4175 8260 c-4 -6 -11 -8 -16 -5 -5 4 -9 2 -9 -3 0 -6 -10 -8 -22 -5
-19 4 -20 3 -8 -6 9 -7 10 -11 3 -11 -6 0 -15 5 -18 10 -5 8 -11 8 -19 0 -7
-5 -25 -11 -40 -12 -14 -1 -26 -6 -26 -10 0 -4 -7 -8 -16 -8 -9 0 -13 -5 -9
-12 4 -7 -1 -4 -9 6 -14 17 -16 18 -16 3 0 -11 -8 -17 -25 -17 -14 0 -25 -6
-25 -12 0 -9 -4 -8 -10 2 -6 10 -10 11 -10 3 0 -7 -7 -13 -15 -13 -9 0 -30 -7
-47 -16 -16 -9 -27 -11 -24 -5 4 6 3 11 -2 11 -6 0 -12 -7 -16 -15 -3 -9 -12
-12 -22 -8 -13 5 -15 3 -9 -8 8 -12 6 -12 -8 0 -14 11 -18 11 -23 -2 -3 -9
-15 -14 -29 -12 -14 1 -26 -4 -30 -14 -5 -13 -7 -14 -15 -1 -9 13 -10 13 -11
0 -1 -8 -1 -19 0 -23 1 -5 -3 -6 -9 -2 -6 3 -8 11 -5 16 3 5 -1 6 -9 3 -9 -3
-16 -10 -16 -15 0 -5 -9 -9 -20 -9 -11 0 -20 -5 -20 -11 0 -5 -4 -7 -10 -4 -5
3 -10 -2 -10 -11 0 -16 -1 -16 -15 2 -15 18 -15 18 -8 0 5 -15 3 -17 -8 -11
-12 8 -12 6 0 -9 8 -9 10 -16 5 -15 -19 3 -31 -1 -32 -13 0 -7 -3 -26 -6 -43
-4 -20 -3 -25 3 -16 7 10 9 7 8 -12 -2 -19 -5 -23 -15 -15 -10 9 -11 6 -3 -16
6 -14 8 -26 4 -26 -3 0 1 -8 10 -18 13 -14 14 -21 5 -30 -9 -9 -9 -12 1 -12 8
0 10 -7 6 -19 -3 -11 0 -23 6 -27 8 -5 9 -3 4 6 -5 9 -4 11 4 6 9 -6 9 -11 0
-22 -9 -11 -8 -14 7 -14 17 0 17 -1 -2 -15 -13 -11 -14 -14 -4 -13 8 2 14 -3
13 -9 -2 -7 2 -13 7 -13 6 0 10 -5 10 -11 0 -5 -4 -8 -9 -5 -10 7 -9 -20 2
-30 4 -4 7 -16 7 -26 0 -10 6 -18 13 -18 8 0 7 -4 -3 -10 -10 -6 -11 -10 -2
-10 6 0 12 -11 12 -25 0 -14 5 -25 10 -25 6 0 10 -5 10 -11 0 -5 -6 -7 -12 -3
-9 5 -9 3 1 -9 7 -9 11 -26 8 -37 -3 -10 -2 -19 2 -18 3 0 13 0 21 -1 13 -1
13 -2 0 -11 -10 -6 -11 -10 -2 -10 6 0 12 -5 12 -11 0 -5 -5 -7 -11 -3 -8 4
-7 0 1 -15 6 -12 15 -19 19 -17 4 3 8 -1 8 -9 0 -8 -5 -11 -10 -8 -7 4 -7 -1
-3 -13 5 -10 9 -25 9 -31 0 -7 7 -13 16 -13 9 0 12 -3 6 -8 -12 -9 -16 -44 -4
-36 5 3 9 -13 9 -35 0 -23 5 -41 10 -41 6 0 10 -7 10 -16 0 -9 5 -12 13 -8 9
5 9 4 1 -5 -12 -13 -8 -51 5 -51 7 0 11 -15 12 -52 0 -10 4 -18 9 -18 10 0 8
-20 -4 -39 -6 -9 -5 -12 2 -7 6 3 16 -3 22 -15 8 -15 9 -19 1 -15 -6 4 -11 2
-11 -3 0 -6 4 -11 8 -11 5 0 9 -7 10 -15 1 -8 3 -22 4 -30 1 -8 5 -15 10 -15
4 0 8 -18 8 -41 0 -33 3 -40 16 -35 10 4 13 2 7 -7 -14 -22 -12 -37 5 -37 15
0 15 -2 2 -10 -12 -8 -12 -10 -1 -10 8 0 11 -7 8 -20 -3 -11 1 -27 10 -35 11
-12 11 -15 1 -15 -11 0 -11 -2 0 -9 8 -4 13 -11 13 -15 -3 -22 0 -36 7 -32 5
3 8 -5 7 -17 -1 -12 1 -29 6 -38 4 -9 4 -21 -2 -27 -5 -7 -6 -10 -3 -7 11 8
34 -16 33 -34 0 -12 -2 -11 -9 4 -7 16 -9 17 -9 3 -1 -9 7 -22 17 -27 9 -6 12
-11 5 -11 -8 0 -8 -7 0 -29 6 -17 15 -27 21 -24 5 3 6 1 2 -5 -12 -19 -16 -53
-5 -47 5 4 9 1 9 -5 0 -6 5 -8 13 -4 8 5 8 2 -2 -9 -10 -13 -10 -17 -1 -17 9
0 9 -4 -1 -17 -10 -11 -10 -14 -1 -9 8 5 12 -2 13 -26 1 -18 1 -37 0 -41 -1
-5 3 -6 9 -2 5 3 10 -1 10 -10 0 -9 4 -14 8 -11 5 3 9 -1 9 -9 0 -8 -3 -12 -7
-10 -3 2 -6 -5 -6 -15 0 -10 3 -17 7 -14 4 2 10 -3 13 -12 3 -8 9 -13 14 -10
4 2 8 -4 8 -15 0 -19 -1 -19 -13 -3 -7 10 -13 13 -13 7 0 -12 28 -37 55 -48
27 -10 55 -13 50 -5 -2 4 3 7 11 7 9 0 13 -6 9 -16 -4 -11 0 -10 16 5 12 10
19 13 15 7 -5 -9 -2 -11 8 -7 9 3 14 10 11 14 -3 5 0 12 6 16 7 4 9 3 6 -3 -4
-6 -1 -13 7 -16 8 -3 17 1 20 9 3 8 11 14 17 14 8 0 7 -5 -2 -17 -12 -16 -11
-16 8 0 16 14 22 15 26 5 4 -9 6 -7 6 4 1 12 6 15 18 11 12 -5 14 -3 8 7 -6
10 -4 11 6 4 22 -14 38 -13 33 1 -3 7 0 16 7 21 8 4 10 3 5 -4 -10 -16 7 -15
23 1 11 10 12 9 6 -3 -6 -12 -5 -13 6 -2 7 6 22 12 34 12 11 0 28 7 38 15 11
7 25 11 33 8 17 -6 18 8 2 27 -11 12 -10 12 3 2 9 -6 20 -8 24 -4 5 4 5 2 2
-5 -5 -7 -1 -10 10 -8 10 2 22 4 27 4 4 1 6 7 3 14 -3 7 5 13 21 14 18 1 21
-1 11 -8 -9 -6 -10 -9 -2 -9 7 0 17 8 22 18 6 9 11 13 11 8 0 -5 8 -2 17 5 14
12 16 12 8 0 -9 -16 7 -8 39 18 11 9 16 10 12 4 -4 -8 -1 -13 9 -13 9 0 13 5
10 10 -3 6 1 10 9 10 23 0 66 22 61 31 -3 4 -1 10 4 13 5 4 13 1 17 -5 5 -8 3
-9 -6 -4 -9 6 -11 4 -5 -5 11 -18 37 18 30 41 -3 9 2 22 10 29 14 12 14 15 0
30 -12 14 -13 20 -4 26 8 5 10 3 4 -6 -5 -9 -4 -11 3 -6 15 9 15 12 -4 30 -8
9 -11 16 -5 16 7 0 7 8 1 24 -5 13 -6 27 -3 30 12 12 -13 6 -27 -6 -8 -7 -7
-4 2 7 11 13 14 25 8 34 -4 8 -6 21 -2 29 3 9 1 13 -5 9 -5 -3 -9 4 -9 16 1
13 -4 21 -11 19 -7 -1 -13 2 -13 8 0 5 8 10 17 10 15 0 14 2 -3 15 -10 8 -14
15 -9 15 6 0 3 5 -5 10 -12 8 -12 10 -1 10 9 0 5 8 -10 22 -16 14 -18 19 -7
15 10 -3 20 -1 24 5 4 7 3 8 -4 4 -8 -5 -12 0 -12 13 0 15 -5 19 -17 14 -15
-5 -15 -3 2 11 11 10 14 15 8 11 -9 -4 -13 1 -13 15 0 12 -4 19 -8 16 -5 -3
-9 1 -9 9 0 8 4 12 9 9 4 -3 8 2 8 11 0 9 -4 13 -10 10 -5 -3 -10 3 -10 15 0
14 -4 19 -12 14 -9 -5 -8 -2 1 9 12 15 11 20 -3 36 -13 14 -14 21 -5 27 9 5 7
10 -6 20 -10 7 -15 20 -12 28 4 9 0 21 -7 28 -6 7 -11 25 -11 40 1 15 -2 25
-7 22 -5 -3 -8 2 -6 12 2 12 -2 18 -11 16 -11 -2 -12 0 -3 10 16 20 -1 84 -20
72 -6 -4 -5 2 1 14 8 16 8 24 -2 34 -8 7 -12 24 -10 36 2 13 -4 30 -13 39 -11
12 -12 18 -4 23 8 5 9 10 2 14 -6 4 -15 -2 -21 -11 -6 -10 -11 -13 -11 -7 0 6
3 14 7 18 11 10 11 76 1 70 -5 -3 -5 -10 -2 -16 4 -6 2 -8 -4 -5 -5 4 -8 16
-5 27 3 11 -1 28 -8 37 -10 12 -10 14 -1 9 6 -4 12 -2 12 3 0 6 -4 11 -10 11
-5 0 -10 16 -10 36 0 21 -4 33 -10 29 -6 -4 -10 10 -10 34 0 23 -4 41 -10 41
-5 0 -10 5 -10 11 0 5 6 7 13 3 8 -5 7 -2 -2 10 -11 13 -16 14 -24 4 -6 -9 -7
-8 -3 5 3 10 6 21 6 23 0 3 6 2 13 -2 8 -5 8 -2 -2 9 -7 9 -10 17 -5 17 4 0 3
5 -3 11 -6 6 -9 18 -6 27 5 11 3 13 -7 7 -9 -6 -12 -4 -8 6 3 8 0 23 -8 34
-15 21 -19 39 -6 31 5 -3 9 1 9 9 0 8 -4 12 -9 9 -7 -5 -9 2 -12 48 -1 9 -5
20 -10 25 -5 5 -6 2 -1 -6 5 -9 4 -12 -3 -7 -6 3 -9 16 -7 27 5 27 -5 50 -19
42 -6 -3 -8 -3 -4 2 4 4 2 17 -4 29 -10 18 -9 19 3 9 12 -10 15 -8 15 7 0 12
-6 17 -19 14 -15 -3 -17 -1 -7 11 10 12 10 15 -1 15 -11 0 -11 2 1 10 10 6 11
10 3 10 -7 0 -13 9 -13 20 0 11 -5 20 -10 20 -7 0 -7 7 1 21 8 15 8 19 0 15
-6 -4 -11 0 -11 9 0 21 -25 46 -36 37 -5 -4 -3 0 4 9 17 22 -7 45 -28 26 -10
-9 -11 -9 -6 1 5 8 -2 12 -23 12 -16 0 -32 6 -34 13 -4 10 -6 10 -6 0 -1 -7
-6 -13 -12 -13 -5 0 -7 5 -4 10 3 6 4 10 1 10 -3 0 -8 -5 -11 -10z m-125
-2160 c0 -5 -5 -10 -11 -10 -5 0 -7 5 -4 10 3 6 8 10 11 10 2 0 4 -4 4 -10z"/>
<path d="M5274 8155 c3 -10 -2 -12 -20 -9 -14 3 -23 1 -20 -4 3 -5 -6 -7 -21
-4 -15 3 -23 1 -20 -4 3 -6 -3 -11 -14 -11 -13 -1 -17 2 -12 10 4 7 -1 5 -11
-3 -11 -8 -14 -16 -7 -18 6 -2 11 -8 11 -14 0 -6 -6 -5 -15 2 -13 11 -20 11
-40 0 -13 -7 -22 -18 -18 -23 3 -6 1 -7 -5 -3 -6 4 -8 14 -5 23 6 15 5 16 -9
3 -9 -8 -14 -18 -11 -22 2 -4 -4 -5 -13 -1 -11 4 -15 3 -11 -4 5 -7 -1 -9 -15
-5 -16 4 -19 2 -13 -9 8 -12 6 -12 -8 0 -9 7 -17 9 -17 5 0 -5 -9 -15 -21 -22
-12 -8 -18 -9 -15 -3 4 7 1 8 -8 5 -9 -3 -14 -10 -11 -14 3 -5 0 -12 -6 -16
-8 -4 -9 -3 -5 4 4 7 1 12 -8 12 -9 0 -16 -4 -16 -10 0 -5 -11 -10 -25 -10
-14 0 -25 -6 -25 -12 0 -9 -4 -8 -10 2 -5 8 -10 10 -10 4 0 -14 -55 -38 -68
-30 -5 3 -15 -1 -22 -9 -10 -12 -10 -15 0 -15 8 0 10 -3 7 -6 -4 -4 -13 -2
-20 4 -10 9 -19 7 -35 -8 -12 -11 -26 -20 -32 -20 -6 0 -9 -4 -5 -9 3 -6 -3
-15 -12 -21 -15 -9 -14 -10 6 -4 21 5 22 4 10 -9 -8 -8 -17 -13 -21 -10 -5 2
-8 -3 -8 -12 0 -10 5 -13 12 -9 7 5 8 3 3 -6 -4 -7 -2 -15 5 -20 8 -5 7 -9 -5
-13 -10 -5 -14 -3 -9 5 4 7 3 8 -4 4 -8 -5 -9 -13 -2 -25 5 -10 6 -21 2 -25
-3 -4 2 -4 13 0 16 6 18 4 8 -6 -9 -10 -8 -18 5 -38 9 -15 12 -23 5 -19 -7 5
-9 0 -6 -13 3 -11 13 -20 22 -20 14 0 14 -2 1 -10 -13 -9 -13 -11 0 -20 13 -9
13 -10 0 -10 -9 0 -11 -3 -5 -8 6 -4 10 -16 9 -27 0 -26 15 -47 30 -38 6 4 5
-1 -3 -10 -9 -11 -10 -17 -2 -17 6 0 11 -13 11 -30 0 -16 5 -30 11 -30 8 0 7
-6 -2 -17 -10 -11 -10 -14 -1 -9 8 5 12 -2 12 -23 0 -17 5 -31 11 -31 6 0 9
-13 7 -29 -1 -16 4 -36 11 -45 7 -9 10 -16 5 -17 -5 0 0 -4 11 -9 l20 -9 -20
-1 c-19 -1 -19 -1 -2 -11 9 -6 15 -15 11 -20 -3 -5 0 -17 8 -26 9 -12 9 -15 1
-9 -9 5 -11 2 -7 -8 3 -9 10 -14 14 -11 5 3 7 -6 4 -21 -4 -21 -2 -25 11 -20
11 4 14 2 8 -6 -10 -17 -11 -48 -2 -48 5 0 5 -8 2 -17 -6 -16 -5 -17 12 -3 17
14 18 14 6 -7 -9 -18 -9 -23 1 -23 9 0 9 -3 -2 -10 -13 -8 -12 -10 3 -10 9 0
17 -5 17 -11 0 -5 -4 -7 -10 -4 -6 3 -7 -1 -4 -9 3 -9 11 -16 16 -16 6 0 5 -6
-2 -15 -9 -10 -9 -15 -1 -15 6 0 11 -7 11 -15 0 -8 6 -15 13 -15 8 0 9 -3 1
-8 -13 -8 -15 -44 -2 -36 5 3 5 10 2 16 -4 6 -2 8 4 5 5 -4 8 -17 4 -29 -4
-16 -2 -19 9 -13 12 8 12 6 0 -8 -9 -11 -10 -17 -2 -17 6 0 11 -5 11 -11 0 -5
-5 -7 -11 -4 -13 8 12 -37 26 -47 6 -5 5 -8 -2 -8 -7 0 -13 -5 -13 -11 0 -5 5
-7 12 -3 7 5 9 2 5 -8 -3 -9 1 -25 8 -36 8 -11 13 -29 10 -41 -2 -11 1 -24 7
-27 7 -5 8 -2 3 6 -5 9 -4 11 4 6 8 -6 9 -11 2 -20 -8 -9 -5 -18 9 -31 14 -13
17 -22 10 -31 -8 -8 -7 -14 2 -18 10 -5 10 -7 -1 -12 -11 -5 -8 -10 10 -20 13
-7 18 -13 11 -14 -10 0 -10 -5 -1 -22 7 -13 11 -24 10 -26 -4 -6 27 -31 33
-25 3 4 6 1 6 -6 0 -7 5 -9 10 -6 6 3 10 1 10 -4 0 -6 -5 -11 -12 -11 -6 0 -9
-3 -6 -6 4 -3 17 2 31 11 19 12 27 13 33 4 4 -7 3 -9 -4 -5 -6 3 -13 2 -16 -3
-6 -9 51 -7 61 3 3 3 13 0 21 -7 13 -10 14 -9 2 13 -10 21 -10 23 1 13 7 -7
21 -13 31 -13 10 0 18 6 18 13 0 8 4 7 10 -3 5 -8 10 -10 10 -5 0 6 9 16 21
23 15 10 19 10 14 1 -5 -7 -3 -10 6 -7 8 3 13 10 12 16 -3 11 15 11 33 -1 7
-4 17 0 24 8 7 8 17 12 23 8 6 -4 8 0 4 10 -5 14 -2 15 20 6 20 -7 24 -7 20 4
-3 8 1 14 9 14 8 0 14 -4 14 -8 0 -4 18 1 40 12 21 10 47 19 56 19 10 0 29 10
42 23 14 12 22 16 18 10 -4 -8 -1 -13 8 -13 9 0 16 5 16 11 0 5 5 7 10 4 6 -3
10 -1 10 6 0 8 3 9 14 0 10 -9 16 -8 26 4 7 9 20 13 28 10 13 -5 13 -3 1 11
-13 16 -12 16 8 6 16 -9 24 -9 29 0 5 7 2 9 -7 4 -8 -4 -6 -1 3 7 10 8 14 18
10 22 -4 4 4 2 18 -5 23 -12 24 -12 11 3 -10 13 -10 17 -1 17 10 0 10 3 0 16
-11 12 -11 15 0 12 10 -2 14 9 15 40 0 30 -3 41 -12 38 -7 -3 -13 -1 -13 4 0
6 5 10 12 10 6 0 3 10 -8 22 -16 18 -17 21 -2 15 12 -4 15 -2 11 9 -3 7 -9 14
-15 14 -5 0 -7 9 -3 19 3 11 0 23 -6 27 -8 5 -9 3 -4 -6 5 -9 4 -11 -4 -6 -9
6 -9 11 0 22 6 8 7 14 2 14 -5 0 -9 10 -8 23 2 23 -13 57 -30 69 -6 5 -4 8 4
8 11 0 10 4 -5 16 -18 15 -18 15 0 10 16 -6 17 -4 5 10 -7 9 -15 28 -16 43 -6
51 -13 70 -26 67 -6 -1 -9 -1 -4 1 12 7 8 33 -5 33 -9 0 -8 4 2 10 10 6 11 10
3 10 -8 0 -13 14 -13 35 0 19 -4 35 -10 35 -5 0 -10 18 -10 40 0 22 -4 40 -10
40 -5 0 -10 8 -10 18 0 10 -6 24 -12 31 -11 11 -10 12 0 6 11 -6 12 -3 3 13
-6 12 -11 25 -10 29 4 22 -2 34 -13 27 -8 -5 -7 0 2 11 12 15 12 17 1 10 -11
-6 -13 -3 -9 13 3 12 1 23 -5 25 -5 1 -10 17 -9 35 0 20 -6 35 -16 42 -11 6
-12 10 -4 10 10 0 10 5 2 20 -6 11 -8 26 -4 32 4 7 3 8 -4 4 -8 -5 -11 0 -10
11 3 38 -3 53 -19 53 -15 0 -16 2 -3 10 13 9 13 11 0 21 -11 8 -12 12 -3 16
10 3 9 8 -2 20 -8 8 -13 19 -10 24 4 5 1 9 -6 9 -8 0 -7 5 2 17 10 11 10 14 2
9 -9 -5 -13 -1 -13 11 0 11 -6 25 -12 32 -10 11 -10 13 0 7 6 -4 12 -2 12 3 0
6 -4 11 -10 11 -5 0 -10 13 -10 29 0 16 -6 32 -12 34 -10 4 -9 6 1 6 10 1 7 7
-8 20 -15 13 -18 20 -9 24 10 3 9 11 -5 36 -10 17 -15 31 -11 31 4 0 0 8 -9
18 -10 10 -14 22 -10 25 3 4 1 7 -5 7 -17 0 -15 -10 6 -34 17 -20 17 -20 -9 0
-15 10 -25 22 -22 27 2 4 0 7 -6 7 -5 0 -13 -4 -16 -10 -3 -5 -12 -10 -18 -10
-7 0 -6 4 3 10 12 8 10 10 -10 11 -14 0 -33 2 -43 4 -12 2 -17 -1 -13 -10z
m416 -1569 c0 -3 -4 -8 -10 -11 -5 -3 -10 -1 -10 4 0 6 5 11 10 11 6 0 10 -2
10 -4z m-339 -119 c-10 -9 -11 -8 -5 6 3 10 9 15 12 12 3 -3 0 -11 -7 -18z"/>
<path d="M3064 7942 c-14 -7 -32 -11 -40 -8 -8 3 -13 2 -10 -3 3 -5 -2 -15
-11 -22 -9 -8 -14 -9 -10 -3 4 7 0 15 -9 18 -11 4 -15 2 -11 -7 3 -7 -4 -19
-15 -26 -16 -10 -18 -10 -13 0 10 16 -12 3 -42 -24 -20 -17 -25 -18 -40 -6
-11 9 -14 10 -9 2 6 -12 -11 -18 -36 -14 -11 1 -10 -13 2 -27 7 -9 7 -9 -2 -2
-17 14 -41 13 -32 -2 5 -8 0 -7 -11 2 -10 8 -16 10 -13 5 4 -6 -5 -15 -18 -22
-16 -7 -22 -8 -17 -1 4 7 1 8 -6 4 -7 -5 -10 -15 -6 -23 4 -13 3 -14 -10 -3
-12 10 -18 8 -35 -11 -10 -13 -19 -18 -20 -11 0 6 5 12 12 12 6 0 9 3 5 6 -9
9 -48 -22 -39 -32 4 -4 0 -3 -10 4 -11 9 -18 10 -23 2 -3 -5 -15 -10 -26 -10
-11 0 -17 -5 -14 -10 4 -6 11 -7 17 -4 7 4 8 2 4 -5 -4 -6 -18 -9 -31 -7 -14
3 -27 0 -31 -5 -3 -5 -10 -6 -16 -3 -7 5 -9 2 -6 -7 4 -11 -1 -15 -22 -13 -23
2 -28 -2 -25 -18 4 -16 2 -18 -10 -8 -12 10 -19 10 -32 -1 -39 -30 -63 -61
-63 -80 0 -11 -3 -18 -7 -16 -5 3 -8 -12 -8 -33 -1 -21 2 -37 6 -34 4 2 9 -3
13 -11 3 -8 2 -15 -3 -15 -4 0 -6 -13 -3 -30 3 -19 8 -27 16 -23 6 4 5 -1 -3
-11 -11 -13 -11 -16 -2 -14 7 2 15 -7 17 -20 2 -14 0 -21 -6 -17 -16 10 -11
-1 7 -16 15 -12 16 -12 8 1 -4 8 -4 12 0 7 12 -10 15 -38 4 -31 -14 8 -11 -2
11 -41 11 -20 16 -34 10 -30 -5 3 -10 -1 -10 -10 0 -9 5 -13 10 -10 6 3 10 -4
10 -17 0 -13 6 -30 13 -37 10 -11 10 -13 0 -7 -7 4 -13 3 -13 -3 0 -5 4 -11
10 -13 5 -1 10 -17 12 -35 1 -17 6 -29 10 -27 9 6 11 -8 8 -43 -1 -13 4 -23
11 -23 7 0 9 -3 6 -7 -4 -3 -1 -13 6 -21 9 -13 9 -14 0 -8 -7 4 -13 2 -13 -3
0 -6 8 -11 17 -11 15 0 14 -2 -3 -15 -16 -13 -16 -14 -1 -9 13 5 16 2 10 -12
-4 -11 -3 -15 4 -11 7 5 10 -4 9 -23 -1 -17 1 -30 6 -30 4 0 5 -7 2 -15 -5
-11 -2 -14 12 -9 18 6 18 6 1 -8 -16 -12 -17 -16 -4 -26 8 -7 13 -23 11 -37
-1 -14 2 -25 8 -25 5 0 8 -11 6 -24 -1 -13 4 -31 12 -42 13 -16 13 -17 0 -9
-12 7 -13 6 -3 -7 7 -8 9 -19 5 -23 -4 -5 -2 -5 4 -2 7 4 15 0 18 -9 3 -8 2
-13 -3 -10 -5 4 -7 -3 -4 -14 3 -11 10 -23 15 -26 5 -3 3 -13 -4 -22 -10 -12
-10 -14 0 -8 8 5 12 -1 12 -18 0 -14 6 -26 13 -26 8 0 7 -4 -3 -10 -10 -6 -11
-10 -2 -10 7 0 12 -13 12 -31 0 -21 4 -28 13 -23 7 5 6 0 -3 -11 -9 -11 -10
-16 -2 -11 8 5 12 -1 12 -18 0 -14 6 -26 13 -26 8 0 7 -4 -3 -10 -12 -8 -12
-10 -1 -10 9 0 12 -8 8 -26 -3 -19 1 -28 17 -34 19 -8 20 -9 2 -9 -20 -1 -20
-1 0 -17 10 -8 12 -12 4 -8 -13 7 -13 5 -2 -8 10 -13 10 -17 0 -21 -7 -3 -4
-6 7 -6 17 -1 17 -3 5 -11 -12 -7 -12 -10 -1 -10 7 0 11 -6 8 -13 -3 -7 1 -21
8 -30 7 -9 10 -28 7 -42 -3 -17 1 -27 13 -31 13 -5 14 -9 3 -15 -9 -6 -9 -9
-1 -9 6 0 10 -9 8 -20 -3 -13 0 -18 7 -14 8 5 9 1 4 -11 -4 -10 -2 -21 3 -25
6 -3 11 -20 13 -38 1 -18 7 -32 13 -32 5 0 3 -5 -5 -10 -10 -6 -11 -10 -2 -10
6 0 12 -12 12 -26 0 -17 4 -23 13 -18 7 5 6 0 -3 -11 -8 -10 -10 -16 -5 -13 6
4 17 -2 24 -14 7 -11 8 -17 2 -13 -7 4 -11 -4 -11 -19 0 -14 5 -26 10 -26 6 0
10 -9 10 -21 0 -13 4 -18 13 -13 8 5 8 2 -2 -9 -7 -9 -9 -17 -4 -17 6 0 10
-12 9 -27 0 -16 5 -27 11 -26 7 2 15 -7 18 -18 5 -16 10 -18 21 -8 8 7 14 7
14 1 0 -5 15 -12 34 -14 22 -2 32 0 29 7 -2 7 3 12 11 12 8 0 13 -4 10 -9 -3
-4 -1 -8 5 -8 5 0 11 5 13 12 2 6 12 12 21 14 10 1 14 -2 11 -8 -5 -7 -2 -8 5
-4 7 5 10 15 7 25 -6 14 -5 15 6 0 14 -18 42 -14 31 4 -5 9 -3 9 8 0 11 -9 18
-8 31 1 10 7 15 16 12 19 -3 3 4 3 17 0 15 -4 26 0 35 12 8 11 14 13 14 7 0
-7 5 -12 11 -12 6 0 9 6 6 13 -3 8 3 13 14 13 11 0 19 -5 19 -11 0 -5 5 -3 10
5 5 8 10 11 10 7 0 -5 7 -1 16 8 12 12 20 13 29 5 11 -9 12 -6 8 12 -4 18 -3
20 6 8 8 -12 11 -12 11 -1 0 11 3 11 17 0 11 -10 14 -10 9 -1 -6 11 18 18 47
13 5 -1 6 3 2 9 -4 6 4 10 19 10 14 0 28 5 32 11 3 6 17 9 31 6 16 -3 27 1 30
10 3 8 12 12 19 9 8 -3 14 -1 14 5 0 6 5 7 12 3 8 -5 9 -1 4 12 -6 15 -5 16 5
7 10 -10 15 -9 26 5 8 9 12 12 9 5 -4 -7 1 -9 14 -6 11 3 17 10 13 17 -4 6 2
4 13 -4 10 -8 16 -10 12 -6 -9 11 10 36 26 36 6 0 4 -5 -4 -10 -9 -6 -10 -10
-3 -10 6 0 18 7 27 15 8 9 18 15 21 15 4 -1 10 2 13 6 4 4 2 4 -5 0 -6 -3 -14
-2 -18 4 -3 6 3 10 16 10 18 0 21 5 17 35 -3 24 -1 31 7 25 7 -6 11 -2 12 11
1 11 -2 17 -8 14 -5 -4 -9 -1 -9 4 0 6 5 11 11 11 8 0 7 5 -2 16 -7 9 -12 34
-10 60 1 24 -1 44 -6 44 -5 0 -10 17 -11 37 -2 21 -7 42 -12 47 -6 6 -10 20
-10 33 0 13 -4 23 -9 23 -5 0 -7 9 -4 20 3 12 0 20 -6 20 -7 0 -9 5 -6 10 3 6
0 10 -7 10 -9 0 -9 3 2 10 8 5 10 10 3 10 -6 0 -16 14 -22 30 -5 17 -6 28 -2
25 5 -3 7 4 4 15 -3 11 -9 18 -13 15 -5 -3 -6 4 -3 15 3 11 0 27 -7 35 -7 8
-9 15 -4 15 5 0 1 5 -9 11 -13 8 -15 14 -7 30 10 17 7 23 -11 21 -3 -1 -6 5
-6 13 0 8 5 12 10 8 5 -3 4 4 -2 14 -6 11 -7 23 -4 27 3 3 -2 6 -13 6 -18 1
-18 1 -1 11 24 14 21 29 -5 29 -16 0 -19 3 -11 11 9 9 8 17 -1 33 -7 11 -12
33 -11 48 1 15 -2 25 -7 22 -4 -3 -5 -10 -2 -16 4 -6 2 -8 -3 -5 -6 4 -8 18
-5 33 3 17 -3 36 -17 54 -12 16 -15 27 -8 24 8 -3 13 3 13 15 0 14 -4 17 -12
10 -9 -8 -12 -3 -10 16 2 14 -1 28 -6 31 -4 3 -6 10 -3 15 4 5 1 9 -6 9 -8 0
-7 5 2 17 12 15 12 16 -4 10 -15 -6 -16 -4 -7 13 7 14 7 20 0 20 -5 0 -9 6 -7
13 1 6 -4 11 -11 9 -9 -2 -11 2 -6 10 5 7 10 22 11 33 3 16 1 17 -7 5 -8 -13
-10 -12 -11 5 -1 11 0 28 0 38 1 9 -5 20 -14 23 -13 6 -14 8 -3 15 9 6 9 9 1
9 -6 0 -10 9 -8 20 2 11 0 20 -5 20 -5 0 -7 7 -3 16 3 9 1 19 -5 23 -7 4 -13
20 -14 37 -1 16 -5 31 -8 34 -12 11 -31 52 -21 45 6 -3 11 1 11 9 0 9 -4 16
-10 16 -5 0 -10 14 -10 30 0 17 -5 30 -12 30 -9 0 -8 4 2 10 13 9 13 10 -1 10
-12 0 -14 8 -11 30 3 19 0 30 -8 30 -7 0 -10 8 -7 20 3 11 1 20 -5 20 -5 0 -6
5 -3 10 3 6 2 10 -3 10 -6 0 -9 14 -8 30 2 21 -2 30 -13 31 -11 0 -12 2 -3 6
10 4 9 9 -5 20 -10 8 -12 11 -4 7 11 -6 13 -3 7 12 -17 41 -24 73 -18 80 4 4
1 3 -7 -1 -11 -6 -13 -4 -8 8 3 10 2 17 -3 17 -5 0 -7 7 -4 15 4 8 1 15 -6 15
-8 0 -10 8 -7 21 5 17 2 20 -14 16 -16 -4 -17 -2 -8 15 10 18 8 19 -13 13 -20
-7 -21 -6 -9 9 12 14 12 16 -4 10 -14 -6 -16 -4 -10 7 5 8 -2 5 -14 -6 -16
-14 -22 -15 -19 -5 2 8 7 18 11 21 16 12 -74 4 -99 -9z m66 3 c0 -7 -30 -13
-34 -7 -3 4 4 9 15 9 10 1 19 0 19 -2z m-529 -218 c-10 -9 -11 -8 -5 6 3 10 9
15 12 12 3 -3 0 -11 -7 -18z m-251 -187 c0 -5 -5 -10 -11 -10 -5 0 -7 5 -4 10
3 6 8 10 11 10 2 0 4 -4 4 -10z"/>
<path d="M2875 7870 c-3 -5 -2 -10 4 -10 5 0 13 5 16 10 3 6 2 10 -4 10 -5 0
-13 -4 -16 -10z"/>
<path d="M2145 7042 c5 -10 0 -12 -24 -9 -17 3 -33 1 -37 -4 -3 -5 -10 -6 -16
-3 -8 5 -9 1 -4 -12 6 -15 5 -17 -5 -6 -16 15 -33 16 -23 1 5 -8 1 -8 -14 0
-25 14 -43 14 -22 1 13 -9 13 -10 0 -11 -8 -1 -23 0 -34 1 -13 1 -16 -2 -10
-12 6 -10 4 -10 -9 1 -11 9 -17 10 -17 2 0 -6 -11 -11 -25 -11 -14 0 -25 -4
-25 -10 0 -5 -14 -10 -31 -10 -21 0 -28 -4 -23 -12 5 -8 0 -7 -11 2 -17 14
-18 13 -12 -2 3 -10 2 -18 -3 -18 -6 0 -10 5 -10 11 0 8 -6 7 -17 -2 -15 -12
-16 -12 -8 1 8 13 7 13 -8 1 -9 -7 -17 -10 -17 -5 0 5 -4 3 -9 -4 -4 -8 -27
-16 -49 -19 -23 -3 -39 -9 -36 -14 3 -5 -9 -9 -26 -9 -22 0 -29 -4 -24 -12 5
-8 0 -7 -11 2 -10 8 -16 11 -13 5 3 -5 0 -16 -8 -23 -8 -7 -14 -10 -14 -7 0 3
-6 0 -14 -7 -8 -7 -11 -17 -8 -23 3 -5 -1 -4 -10 3 -14 11 -16 11 -14 0 1 -7
5 -19 9 -26 5 -7 2 -14 -7 -18 -13 -5 -12 -9 5 -23 19 -15 20 -18 5 -30 -15
-13 -15 -15 1 -27 16 -13 16 -14 1 -8 -14 5 -16 1 -12 -18 3 -12 7 -30 8 -38
2 -8 9 -14 17 -12 9 2 10 0 2 -10 -13 -15 -6 -68 9 -68 5 0 7 -8 3 -19 -7 -22
4 -53 16 -45 5 3 5 -5 0 -19 -7 -18 -5 -29 7 -42 13 -14 13 -16 2 -10 -12 6
-13 5 -2 -6 6 -7 12 -30 12 -52 0 -21 4 -36 9 -33 5 3 7 -8 6 -24 -1 -17 0
-30 4 -30 4 0 8 -12 9 -26 1 -15 6 -32 12 -39 6 -7 6 -15 -2 -23 -9 -9 -9 -12
0 -12 7 0 12 -13 12 -31 0 -18 4 -28 10 -24 13 8 8 -18 -5 -27 -6 -5 -5 -8 4
-8 7 0 11 -6 8 -15 -4 -8 -2 -17 3 -20 5 -3 6 -13 3 -22 -4 -10 -2 -14 4 -10
6 4 11 1 10 -6 -1 -41 4 -58 16 -51 8 5 8 2 -2 -9 -10 -13 -11 -20 -2 -31 9
-11 9 -15 -1 -19 -10 -4 -10 -6 0 -6 6 -1 12 -12 12 -25 0 -14 4 -27 9 -31 6
-3 8 -14 6 -25 -2 -11 3 -27 11 -35 10 -10 11 -15 3 -15 -8 0 -8 -5 2 -17 9
-11 10 -14 2 -9 -9 5 -11 2 -7 -8 3 -9 11 -13 18 -9 6 4 5 -1 -3 -10 -12 -15
-11 -17 5 -18 18 0 18 -1 -1 -9 -11 -5 -14 -9 -7 -9 6 -1 12 -10 12 -20 0 -11
5 -23 10 -26 8 -5 8 -11 1 -19 -6 -7 -7 -16 -3 -20 4 -4 8 -12 8 -17 1 -5 3
-10 4 -11 1 -2 3 -18 5 -37 1 -18 6 -36 11 -40 5 -3 10 -17 10 -31 3 -48 4
-51 16 -44 8 5 9 2 5 -9 -9 -23 2 -49 17 -40 6 4 5 -1 -3 -10 -12 -15 -11 -17
3 -17 11 0 14 -5 10 -12 -4 -6 -3 -8 4 -4 6 3 14 2 17 -4 5 -8 11 -7 21 1 11
9 18 8 32 -5 16 -14 21 -14 38 -2 15 11 22 12 33 3 12 -9 13 -9 7 1 -7 11 -3
13 37 16 6 1 18 8 25 16 8 8 11 9 7 3 -3 -7 -1 -13 4 -13 6 0 11 5 11 11 0 5
5 7 10 4 6 -3 10 2 10 12 0 10 4 14 8 8 9 -13 35 -18 27 -5 -4 6 4 10 19 10
20 0 24 4 19 18 -5 14 -3 13 10 -3 9 -11 17 -15 17 -9 0 7 16 15 35 18 20 4
33 11 31 15 -3 4 6 6 21 3 18 -3 24 -1 19 6 -5 8 3 11 23 8 17 -2 28 1 25 5
-3 5 4 9 16 9 13 0 19 4 14 11 -4 8 0 8 15 0 17 -9 21 -9 19 1 -2 8 6 13 20
12 17 -1 22 3 17 14 -4 12 -3 13 9 3 11 -10 17 -8 25 6 6 10 11 13 11 5 0 -10
3 -10 14 0 8 7 12 16 10 20 -2 4 1 10 7 14 7 4 9 3 6 -3 -4 -6 0 -13 8 -16 10
-4 12 -1 8 10 -4 11 -3 14 6 9 8 -6 11 -2 9 10 -2 13 2 18 13 17 11 -2 16 7
18 39 1 23 7 46 14 50 8 5 5 8 -8 8 -17 0 -17 2 -5 10 12 8 12 10 -5 10 -18 1
-18 2 -4 13 16 12 15 42 -1 32 -4 -3 -10 2 -14 10 -3 8 0 17 6 21 7 4 8 3 4
-4 -4 -7 -2 -12 3 -12 14 0 14 17 0 25 -6 4 -8 13 -5 21 3 7 0 16 -6 20 -7 5
-8 2 -3 -6 5 -9 4 -11 -4 -6 -9 6 -9 11 1 24 11 13 11 14 -1 7 -11 -6 -13 -4
-8 8 4 10 0 17 -11 20 -15 4 -14 5 2 6 15 1 16 4 7 15 -6 8 -10 20 -9 27 2 8
-3 13 -11 11 -12 -3 -12 0 -1 12 10 13 10 16 -1 16 -11 0 -11 2 1 10 11 7 11
10 2 10 -8 0 -12 9 -10 23 2 15 -2 21 -11 19 -12 -3 -12 0 -2 12 9 11 9 16 0
22 -8 5 -9 3 -4 -6 5 -9 4 -11 -4 -6 -9 6 -9 11 0 22 9 11 9 14 0 14 -7 0 -9
5 -6 10 4 6 2 16 -3 23 -5 7 -8 20 -7 29 2 9 -3 19 -11 22 -8 3 -14 11 -14 18
0 9 3 8 10 -2 8 -13 10 -12 10 3 0 9 -6 17 -12 17 -9 0 -8 4 2 10 12 8 12 10
-5 10 -17 0 -17 2 -5 10 12 8 12 10 1 10 -8 0 -11 7 -8 20 3 11 -1 27 -10 35
-11 12 -11 15 -1 15 8 0 9 3 3 8 -6 4 -12 23 -14 42 -1 19 -7 37 -12 38 -5 2
-9 21 -9 43 0 21 -4 39 -8 39 -4 0 -9 12 -10 26 -1 15 -7 33 -12 40 -8 8 -8
14 0 19 7 4 5 11 -4 21 -9 8 -12 22 -9 31 4 11 3 14 -5 9 -7 -4 -12 -3 -12 3
0 5 6 12 13 14 6 3 3 6 -8 6 -15 1 -17 3 -6 10 9 6 10 10 2 16 -9 5 -9 10 0
21 9 11 8 15 -5 20 -9 3 -16 10 -16 16 0 5 4 6 10 3 6 -3 7 1 4 9 -3 9 -11 13
-16 10 -6 -4 -5 3 1 15 10 17 9 22 -3 27 -9 3 -12 12 -9 21 4 9 2 14 -3 10 -6
-3 -11 4 -11 16 -2 17 0 19 7 7 6 -9 10 -10 10 -3 0 6 -4 14 -9 17 -8 5 -26
76 -21 84 1 2 -6 14 -14 28 -9 13 -13 24 -10 24 4 0 0 8 -9 18 -10 10 -14 22
-10 26 4 4 0 4 -10 0 -11 -4 -24 2 -37 17 -11 13 -20 20 -19 14 4 -31 -2 -36
-22 -14 -11 13 -17 18 -14 11z m100 -52 c3 -5 1 -10 -4 -10 -6 0 -11 5 -11 10
0 6 2 10 4 10 3 0 8 -4 11 -10z m-375 -1670 c0 -5 -2 -10 -4 -10 -3 0 -8 5
-11 10 -3 6 -1 10 4 10 6 0 11 -4 11 -10z"/>
<path d="M1495 6749 c-10 -15 3 -25 16 -12 7 7 7 13 1 17 -6 3 -14 1 -17 -5z"/>
<path d="M5879 6405 c-1 -5 -1 -14 0 -18 1 -4 -7 -3 -18 3 -25 13 -31 13 -31
-1 0 -5 6 -7 13 -3 6 4 9 3 4 -1 -4 -5 -16 -9 -27 -10 -16 -1 -18 1 -7 14 9
12 7 12 -9 -1 -16 -14 -23 -15 -32 -6 -9 9 -12 9 -12 -1 0 -7 -4 -10 -9 -7 -5
3 -14 -1 -21 -10 -11 -12 -15 -12 -21 -2 -7 10 -9 10 -9 1 0 -7 -6 -13 -14
-13 -8 0 -17 -6 -19 -12 -4 -10 -6 -10 -6 0 -1 6 -6 12 -12 12 -5 0 -7 -5 -3
-12 5 -8 2 -9 -10 -5 -14 6 -17 3 -12 -10 6 -15 5 -16 -5 -5 -15 14 -43 16
-34 2 3 -5 1 -10 -4 -10 -6 0 -11 5 -11 12 0 6 -9 1 -19 -11 -13 -15 -20 -18
-24 -9 -4 10 -7 11 -18 1 -7 -7 -26 -13 -42 -13 -18 0 -26 -4 -21 -11 5 -8 -4
-10 -28 -7 -25 2 -34 0 -31 -8 3 -9 -7 -12 -35 -10 -33 2 -39 0 -35 -15 3 -9
0 -20 -6 -23 -6 -4 -9 -2 -6 6 4 9 -4 14 -25 14 -26 2 -28 0 -14 -10 14 -11
10 -12 -24 -11 -25 1 -43 -3 -46 -11 -3 -7 -14 -10 -27 -7 -15 4 -20 2 -15 -5
3 -6 1 -14 -5 -18 -7 -4 -9 -3 -5 4 3 6 2 13 -4 17 -5 3 -10 1 -10 -6 0 -6 -8
-9 -20 -6 -13 3 -18 1 -13 -6 4 -7 0 -8 -11 -4 -14 6 -17 3 -12 -9 5 -13 3
-14 -6 -7 -16 12 -82 -9 -71 -22 5 -5 1 -4 -9 3 -11 9 -18 10 -23 2 -3 -5 -17
-10 -31 -10 -13 0 -24 -4 -24 -10 0 -5 -11 -10 -24 -10 -13 0 -27 -6 -29 -12
-4 -10 -6 -10 -6 1 -1 8 -8 4 -21 -10 -11 -13 -20 -19 -19 -14 3 24 -2 27 -16
9 -12 -16 -16 -17 -24 -4 -9 12 -11 12 -16 -3 -6 -13 -11 -14 -26 -7 -15 9
-17 8 -12 -6 4 -11 3 -15 -5 -10 -6 3 -13 2 -17 -4 -3 -5 -12 -10 -18 -10 -7
0 -6 4 3 10 11 7 12 10 2 10 -7 0 -20 -7 -28 -15 -8 -8 -22 -11 -31 -8 -11 4
-14 3 -9 -5 5 -8 2 -10 -8 -6 -9 3 -16 1 -16 -5 0 -6 -7 -8 -17 -4 -12 5 -14
3 -8 -8 7 -11 6 -12 -6 -2 -18 15 -45 1 -34 -18 6 -11 5 -11 -4 -3 -14 13 -51
7 -51 -7 0 -5 -5 -9 -11 -9 -5 0 -8 4 -5 8 10 17 -35 5 -48 -13 -9 -12 -15
-14 -20 -7 -5 9 -12 9 -26 0 -10 -7 -17 -15 -15 -18 7 -11 -29 -8 -42 3 -9 7
-13 5 -13 -7 0 -10 -5 -14 -11 -11 -18 11 -59 -4 -60 -23 0 -14 -2 -14 -8 3
-8 19 -8 19 -22 -2 -11 -18 -16 -20 -28 -10 -12 9 -13 9 -7 0 4 -8 2 -13 -4
-13 -6 0 -8 -5 -4 -12 4 -7 3 -8 -4 -4 -7 4 -17 4 -23 0 -8 -4 -7 -9 2 -15 11
-7 10 -9 -3 -9 -11 0 -15 -5 -12 -14 3 -8 1 -17 -5 -21 -6 -3 -11 -15 -11 -26
0 -14 4 -18 13 -13 8 5 8 2 -2 -9 -10 -13 -10 -17 -1 -17 10 0 10 -3 0 -15 -9
-11 -9 -15 -1 -15 7 0 11 -8 9 -18 -2 -11 4 -27 12 -37 13 -17 13 -18 0 -11
-8 4 -4 -2 10 -14 14 -12 19 -19 13 -15 -8 4 -13 0 -13 -9 0 -9 5 -16 10 -16
6 0 10 -13 10 -30 0 -17 5 -30 13 -30 8 0 7 -4 -3 -10 -11 -7 -11 -10 -2 -10
7 0 10 -4 7 -10 -3 -5 2 -10 12 -10 14 0 15 -2 4 -9 -8 -5 -11 -16 -7 -26 5
-15 9 -15 24 -4 14 11 15 11 5 -1 -15 -16 -18 -54 -4 -45 5 3 13 1 16 -5 4 -6
3 -9 -2 -8 -4 2 -8 -1 -8 -7 0 -5 3 -9 6 -8 3 1 6 -4 6 -12 0 -8 -3 -12 -7
-10 -4 2 -7 -2 -7 -10 0 -8 4 -12 9 -9 4 3 8 0 8 -6 0 -6 5 -8 13 -4 9 6 9 4
-1 -8 -10 -12 -10 -18 -1 -23 6 -4 16 -1 21 6 6 10 7 7 3 -9 -6 -21 -4 -23 13
-18 11 4 23 2 27 -3 3 -7 0 -8 -9 -5 -9 3 -16 2 -16 -4 0 -11 18 -11 37 1 6 4
15 2 19 -4 5 -8 3 -9 -7 -4 -8 5 -11 4 -6 0 10 -12 77 -13 77 -2 0 5 6 5 13
-1 10 -9 19 -7 37 5 17 12 21 13 15 2 -8 -12 -6 -12 8 -1 9 8 21 11 27 7 5 -3
10 -1 10 5 0 8 6 7 21 -1 15 -8 19 -8 15 0 -4 6 0 11 9 11 10 0 14 5 9 13 -6
10 -4 10 7 0 7 -7 19 -13 27 -13 8 0 10 5 6 13 -5 8 -2 8 9 -2 12 -9 17 -10
17 -2 0 7 4 9 10 6 5 -3 19 -1 30 5 14 8 20 8 20 0 0 -8 6 -8 20 0 11 6 25 8
30 5 6 -3 10 -2 10 3 0 6 14 9 31 8 16 -1 33 2 36 7 3 4 11 6 18 3 7 -2 16 3
20 12 3 9 9 12 13 7 10 -14 35 -18 27 -5 -4 6 -1 11 6 9 39 -5 70 2 63 14 -6
10 -4 10 7 0 14 -14 33 -18 26 -5 -3 4 13 8 35 8 22 1 44 7 48 14 6 10 9 9 12
-1 3 -8 9 -10 19 -4 8 5 25 11 39 13 13 2 31 9 39 15 12 9 13 9 7 0 -4 -7 -3
-13 1 -13 5 0 15 6 22 13 11 10 13 10 7 0 -8 -15 20 -18 28 -4 4 5 25 8 49 7
28 -1 46 3 54 14 11 14 15 9 12 -16 0 -3 8 -13 19 -22 10 -9 27 -32 36 -50 12
-23 22 -32 33 -28 13 6 14 4 3 -9 -11 -13 -11 -16 1 -13 9 2 15 -7 17 -25 3
-23 6 -26 18 -16 12 10 13 9 8 -5 -4 -10 2 -23 15 -35 16 -14 18 -21 9 -24 -8
-3 -6 -6 5 -6 10 -1 15 -5 12 -11 -3 -5 -1 -10 5 -10 6 0 9 -4 5 -9 -3 -6 3
-14 12 -20 10 -6 14 -11 10 -11 -4 0 -3 -9 3 -20 16 -30 4 -60 -23 -56 -12 2
-28 -2 -36 -8 -11 -8 -13 -8 -8 0 4 7 0 14 -8 17 -9 4 -12 1 -8 -9 7 -18 -2
-18 -21 2 -15 14 -16 14 -16 -1 0 -13 -4 -14 -22 -4 -18 10 -20 9 -15 -4 4
-11 2 -14 -8 -10 -8 3 -13 9 -10 13 3 5 0 12 -6 16 -7 4 -9 3 -6 -3 9 -15 -29
-23 -42 -10 -8 8 -11 6 -11 -8 -1 -19 -1 -19 -11 -2 -7 13 -15 15 -28 8 -10
-6 -23 -6 -31 -1 -9 5 -20 4 -29 -3 -12 -9 -13 -9 -7 1 4 7 1 12 -9 12 -9 0
-13 -4 -10 -10 3 -5 1 -10 -4 -10 -6 0 -11 8 -12 18 0 9 -3 12 -5 5 -3 -7 -12
-9 -21 -6 -10 4 -14 2 -10 -4 4 -6 -3 -8 -19 -5 -19 3 -22 7 -12 13 7 5 9 9 5
9 -4 0 -20 -8 -34 -17 -15 -10 -24 -13 -20 -7 4 7 -7 11 -33 11 -22 0 -40 -5
-40 -11 0 -6 -5 -3 -11 6 -10 18 -37 14 -51 -6 -5 -7 -8 -4 -8 7 0 9 -5 17
-11 17 -5 0 -8 -3 -6 -7 3 -5 -6 -9 -19 -9 -14 -1 -21 2 -18 8 4 6 -3 5 -15
-1 -12 -7 -21 -8 -21 -2 0 6 -11 6 -30 1 -18 -5 -30 -5 -30 0 0 6 -10 6 -25 0
-18 -7 -25 -6 -25 3 0 8 -4 7 -10 -3 -9 -13 -10 -13 -10 0 0 13 -1 13 -10 0
-9 -13 -10 -13 -10 0 0 13 -1 13 -10 0 -8 -12 -10 -12 -10 -1 0 10 -3 11 -13
3 -8 -7 -18 -7 -27 -2 -9 6 -17 5 -22 -3 -6 -9 -10 -9 -17 2 -7 11 -9 11 -14
0 -5 -12 -6 -12 -6 0 -1 11 -4 11 -16 1 -8 -7 -15 -8 -15 -3 0 5 -9 9 -19 9
-11 0 -17 -4 -15 -8 3 -4 0 -8 -5 -8 -6 0 -11 6 -11 13 0 9 -3 8 -9 -2 -7 -10
-10 -10 -13 -1 -3 10 -9 10 -24 2 -12 -6 -26 -7 -34 -2 -9 5 -20 4 -29 -3 -12
-10 -13 -9 -6 3 8 13 7 13 -8 1 -9 -7 -17 -9 -17 -3 0 5 -15 9 -32 8 -18 -2
-39 2 -46 7 -9 7 -11 5 -6 -8 6 -15 4 -16 -13 -7 -11 6 -23 9 -26 5 -4 -3 -14
0 -24 8 -9 8 -14 9 -10 3 4 -7 0 -15 -9 -18 -8 -3 -13 -2 -10 3 3 5 -1 12 -10
15 -8 3 -12 2 -9 -4 7 -12 -23 -9 -44 4 -9 6 -12 5 -8 -1 4 -6 0 -13 -8 -17
-8 -3 -17 0 -21 6 -5 7 -2 8 6 3 9 -6 11 -4 6 4 -6 9 -12 9 -25 -3 -15 -14
-19 -14 -41 1 -13 9 -20 11 -16 5 9 -15 5 -15 -28 -2 -16 6 -27 6 -31 0 -4 -6
-11 -10 -16 -10 -6 0 -7 6 -3 13 6 9 4 9 -8 -1 -13 -10 -18 -10 -24 -1 -5 8
-3 9 6 4 9 -5 11 -4 6 4 -4 6 -12 9 -17 5 -5 -3 -6 -10 -3 -16 5 -8 1 -9 -12
-4 -26 11 -84 15 -84 7 0 -12 -70 -3 -87 10 -13 11 -15 11 -9 1 6 -10 -1 -12
-28 -10 -20 1 -36 6 -36 11 0 4 -5 5 -10 2 -8 -5 -7 -12 2 -23 11 -13 11 -14
-2 -7 -8 5 -21 11 -27 12 -7 2 -21 5 -30 7 -10 2 -24 -2 -32 -8 -11 -8 -13 -8
-7 2 4 6 2 12 -3 12 -6 0 -11 -6 -11 -12 0 -9 -4 -8 -10 2 -5 8 -10 11 -10 5
0 -5 -5 -4 -11 2 -14 14 -41 5 -32 -11 3 -6 -3 -3 -14 7 -11 9 -22 15 -25 12
-10 -11 -108 -12 -108 -1 0 6 -5 4 -10 -4 -8 -13 -10 -13 -10 -1 0 11 -4 10
-16 -5 -8 -10 -13 -13 -9 -6 5 10 -2 14 -35 14 -3 1 -20 -2 -38 -6 -18 -3 -31
-2 -28 2 9 15 -39 7 -52 -8 -7 -8 -12 -10 -11 -5 3 22 -2 25 -22 14 -12 -6
-19 -7 -16 -2 3 4 -13 8 -34 8 -21 0 -39 -2 -39 -5 0 -10 -85 -6 -92 5 -5 6
-11 6 -19 -2 -8 -8 -18 -9 -31 -2 -12 6 -24 6 -37 -1 -14 -7 -22 -7 -27 1 -4
8 -9 7 -15 -2 -6 -10 -9 -10 -9 -2 0 12 -30 10 -50 -2 -6 -3 -10 2 -11 12 0
11 -3 13 -6 5 -2 -6 -9 -10 -14 -6 -5 3 -9 -1 -9 -8 0 -10 -3 -9 -9 1 -8 13
-12 13 -27 0 -14 -11 -16 -11 -10 0 7 10 3 12 -14 6 -17 -6 -21 -4 -14 6 6 12
5 12 -9 0 -9 -7 -17 -10 -17 -7 0 4 -10 1 -22 -5 -20 -11 -21 -10 -11 2 10 12
8 15 -7 15 -10 0 -17 -3 -14 -7 2 -4 -6 -7 -19 -7 -12 0 -26 -1 -32 -2 -19 -4
-36 0 -31 8 2 4 -13 8 -35 7 -21 0 -39 -3 -39 -7 0 -5 -5 -8 -11 -8 -5 0 -8 3
-6 8 3 4 -32 7 -78 8 -48 0 -81 -4 -78 -9 3 -5 -4 -4 -15 2 -27 14 -35 14 -26
-1 6 -10 4 -10 -7 0 -17 16 -32 16 -23 0 6 -10 4 -10 -7 -1 -19 18 -55 16 -75
-4 -17 -17 -18 -17 -11 0 4 11 2 17 -9 17 -9 0 -12 -5 -8 -12 5 -10 4 -10 -5
-2 -16 15 -59 -4 -67 -30 -5 -15 -8 -16 -15 -5 -5 8 -9 9 -9 3 0 -5 5 -15 12
-22 7 -7 9 -12 5 -12 -4 0 3 -18 14 -41 13 -23 27 -38 34 -35 8 3 11 -2 8 -15
-3 -11 0 -19 6 -19 7 0 10 -4 6 -9 -3 -6 3 -14 12 -20 14 -8 15 -11 3 -11 -10
0 -8 -5 7 -13 21 -12 23 -15 23 -37 0 -5 7 -10 16 -10 8 0 13 -4 9 -9 -9 -16
30 -72 42 -60 7 7 10 3 8 -15 -3 -21 1 -26 18 -27 12 0 16 -3 10 -6 -18 -7
-16 -23 3 -23 8 0 13 -4 9 -9 -3 -5 1 -16 9 -24 8 -8 12 -17 9 -21 -4 -3 2 -6
13 -6 16 0 17 -2 4 -10 -10 -6 -11 -10 -2 -10 6 0 12 -7 12 -17 0 -9 3 -14 6
-10 10 9 42 -35 37 -50 -3 -7 0 -13 6 -13 6 0 11 -7 11 -15 0 -8 5 -15 10 -15
6 0 10 -7 10 -15 0 -8 9 -24 19 -34 11 -11 17 -22 13 -25 -3 -3 3 -6 12 -6 13
0 16 -5 12 -16 -5 -12 -2 -15 10 -10 15 6 15 4 3 -11 -9 -11 -10 -14 -2 -9 9
5 13 0 13 -14 0 -12 5 -18 10 -15 6 3 10 1 10 -5 0 -6 6 -8 13 -4 9 6 9 4 -1
-7 -13 -14 -17 -33 -4 -25 4 2 14 1 22 -5 13 -7 13 -9 1 -9 -9 0 -7 -6 8 -19
12 -11 23 -28 24 -39 0 -12 5 -18 9 -16 4 3 8 0 8 -6 0 -19 41 -71 51 -65 5 4
6 -1 3 -9 -4 -9 -1 -16 6 -16 7 0 10 -8 7 -20 -3 -13 0 -20 10 -20 8 0 11 5 7
12 -4 6 -3 8 3 5 6 -4 9 -18 8 -31 -2 -17 3 -27 15 -31 12 -4 17 -12 13 -22
-4 -11 -2 -14 5 -9 8 5 12 0 12 -13 0 -19 10 -26 33 -22 4 1 3 -8 -4 -20 -6
-12 -7 -19 -2 -16 10 6 34 -19 26 -27 -6 -6 13 -10 30 -7 5 1 6 -3 2 -8 -3 -6
-13 -8 -23 -5 -15 5 -15 4 1 -6 9 -6 14 -16 11 -22 -4 -6 -3 -8 3 -5 6 4 17
-1 24 -10 12 -14 12 -16 -1 -8 -13 8 -13 6 -1 -8 7 -9 17 -14 22 -11 5 3 8 0
7 -8 -2 -7 4 -12 12 -10 10 1 9 -2 -4 -13 -17 -13 -18 -15 -3 -15 9 0 17 -7
17 -15 0 -8 7 -15 16 -15 11 0 15 -6 11 -20 -3 -13 0 -20 9 -20 8 0 14 -8 14
-18 0 -10 9 -24 19 -32 11 -7 18 -17 15 -22 -3 -4 2 -11 11 -14 12 -5 13 -9 5
-14 -9 -5 -6 -10 9 -15 15 -4 20 -12 17 -22 -4 -10 1 -17 15 -20 16 -4 17 -8
7 -14 -10 -7 -9 -9 4 -9 12 0 15 -5 11 -17 -4 -11 -3 -14 5 -9 8 5 12 0 12
-13 0 -13 7 -21 18 -21 14 0 15 -2 2 -10 -13 -9 -13 -10 0 -11 8 -1 19 -1 24
0 5 1 3 -5 -4 -14 -11 -13 -10 -15 3 -9 12 4 14 0 10 -18 -4 -18 -3 -20 6 -8
9 12 11 11 11 -7 0 -13 5 -22 13 -20 7 1 11 -7 9 -20 -2 -15 4 -23 19 -28 15
-5 18 -9 9 -15 -9 -5 -9 -9 -1 -14 6 -4 15 -5 20 -2 5 4 7 -3 4 -13 -3 -11 4
-28 16 -40 12 -12 19 -21 16 -21 -3 0 1 -13 10 -29 10 -20 11 -32 4 -36 -7 -5
-6 -11 2 -21 7 -9 8 -18 2 -26 -6 -7 -9 -26 -8 -41 1 -15 -2 -30 -7 -33 -5 -3
-3 -12 3 -21 8 -9 9 -17 3 -21 -13 -10 -18 -46 -5 -37 7 3 8 0 5 -9 -3 -9 -10
-14 -14 -11 -5 3 -7 -3 -5 -12 2 -10 4 -18 5 -18 1 0 3 -8 5 -18 2 -9 -1 -15
-6 -11 -14 8 -11 -40 4 -55 7 -9 7 -11 1 -8 -14 8 -27 -20 -13 -28 5 -4 7 -11
3 -16 -3 -5 -9 -7 -13 -5 -4 3 -8 -1 -8 -9 0 -8 4 -12 8 -9 4 2 10 0 14 -6 3
-5 -2 -10 -12 -10 -15 0 -16 -2 -3 -10 8 -5 10 -10 3 -10 -6 0 -10 -13 -9 -31
1 -16 0 -32 -4 -34 -8 -5 -5 -48 5 -65 5 -9 4 -11 -3 -6 -12 7 -12 3 -15 -81
0 -16 -5 -31 -11 -35 -7 -5 -7 -8 2 -8 6 0 12 -5 12 -11 0 -5 -6 -7 -12 -3
-10 6 -10 5 0 -8 10 -12 9 -18 -3 -28 -11 -9 -12 -16 -5 -25 8 -9 7 -15 -2
-18 -8 -3 -5 -6 6 -6 20 -1 20 -1 0 -16 -12 -9 -14 -14 -6 -15 10 0 9 -4 -3
-16 -11 -12 -13 -20 -6 -27 13 -13 15 -31 3 -23 -4 2 -9 -4 -9 -15 -1 -13 2
-17 10 -12 7 4 6 0 -2 -10 -11 -14 -11 -17 0 -17 12 0 12 -2 0 -9 -9 -6 -14
-24 -13 -46 1 -25 -2 -34 -11 -29 -9 5 -9 4 0 -6 9 -9 9 -19 2 -33 -8 -14 -8
-18 0 -13 6 4 11 2 11 -3 0 -6 -4 -11 -9 -11 -4 0 -8 -10 -8 -22 -1 -114 -4
-142 -13 -128 -6 9 -10 10 -10 3 0 -6 5 -15 10 -18 8 -5 8 -11 0 -20 -8 -10
-7 -14 2 -18 10 -4 10 -6 -1 -6 -11 -1 -11 -4 0 -18 10 -11 10 -14 2 -9 -9 5
-13 -2 -14 -26 -1 -18 -1 -39 0 -47 2 -8 -2 -10 -11 -5 -10 6 -10 4 1 -9 11
-14 11 -17 0 -17 -11 0 -11 -2 1 -10 10 -6 11 -10 3 -10 -7 0 -13 -5 -13 -11
0 -5 6 -7 13 -3 9 6 9 5 0 -7 -10 -12 -10 -18 0 -29 9 -10 9 -11 0 -6 -17 9
-17 -6 0 -23 10 -10 9 -11 -5 -6 -13 5 -15 2 -11 -14 3 -12 -1 -29 -8 -38 -12
-15 -12 -16 5 -9 19 7 19 6 1 -14 -11 -12 -13 -20 -6 -20 9 0 9 -5 0 -21 -8
-16 -8 -20 1 -14 9 5 9 3 2 -11 -5 -11 -7 -25 -4 -33 2 -8 0 -11 -5 -8 -13 8
-12 -26 1 -35 8 -6 7 -8 -1 -8 -6 0 -10 -9 -8 -20 2 -11 0 -22 -4 -25 -5 -2
-7 -21 -4 -41 2 -19 0 -33 -4 -31 -4 3 -9 -22 -10 -54 -1 -39 3 -59 10 -59 7
0 5 -5 -5 -10 -10 -6 -14 -18 -11 -30 3 -11 -1 -28 -8 -37 -10 -12 -10 -14 -1
-9 15 9 15 1 1 -26 -8 -16 -8 -19 1 -13 9 5 9 1 -1 -16 -15 -28 -15 -29 3 -40
10 -7 10 -9 0 -9 -7 0 -10 -4 -7 -10 3 -5 3 -10 -2 -10 -10 0 -10 -61 0 -77 4
-6 2 -15 -4 -19 -8 -5 -9 -3 -4 7 6 11 5 11 -4 3 -10 -9 -10 -17 -1 -34 10
-18 9 -21 -1 -15 -8 6 -11 4 -6 -7 3 -9 0 -21 -6 -28 -9 -10 -9 -11 1 -6 15 9
16 -6 0 -22 -9 -9 -9 -12 1 -12 10 0 11 -3 2 -13 -8 -10 -7 -17 2 -26 6 -7 8
-11 2 -9 -5 2 -10 -1 -10 -7 0 -5 5 -9 10 -7 6 1 2 -4 -7 -11 -18 -15 -14 -62
5 -50 6 3 7 1 3 -6 -4 -6 -12 -8 -18 -5 -7 5 -9 1 -5 -9 3 -9 2 -19 -4 -23 -6
-4 -5 -12 3 -22 10 -12 10 -14 1 -8 -17 9 -17 -6 0 -23 9 -11 9 -12 0 -7 -9 5
-12 -1 -9 -23 2 -21 -1 -31 -10 -31 -8 0 -14 -5 -14 -11 0 -5 5 -7 10 -4 6 4
10 -6 10 -24 0 -16 -5 -33 -10 -36 -5 -3 -10 -13 -10 -21 0 -10 5 -12 13 -8 8
5 8 2 -2 -9 -11 -14 -11 -17 0 -17 11 0 11 -2 2 -8 -7 -5 -12 -28 -11 -56 0
-31 -4 -51 -13 -57 -10 -6 -11 -9 -1 -9 6 0 12 -5 12 -11 0 -5 -3 -8 -7 -6 -5
3 -9 -6 -9 -19 -1 -15 2 -21 10 -17 7 4 6 1 -2 -9 -6 -8 -11 -27 -10 -42 l2
-26 1473 0 c1119 0 1474 3 1479 12 4 7 2 14 -4 16 -7 2 -12 8 -12 14 0 6 6 8
13 5 7 -3 12 5 13 22 1 14 -1 20 -3 14 -3 -7 -8 -13 -12 -13 -9 0 -6 43 4 59
3 6 2 11 -2 11 -5 0 -8 27 -7 60 0 32 -3 57 -8 54 -4 -3 -8 0 -8 5 0 6 5 11
10 11 6 0 10 4 10 10 0 5 -7 7 -15 4 -12 -5 -14 -2 -7 17 11 36 8 64 -8 61
-11 -3 -11 0 -1 12 11 13 10 17 -5 23 -17 6 -17 7 0 13 17 6 17 8 3 22 -9 9
-13 18 -10 22 10 10 11 46 1 46 -5 0 -5 8 1 17 7 13 5 23 -6 35 -9 10 -11 18
-5 18 5 0 8 9 5 20 -3 11 -9 17 -14 15 -4 -3 -6 5 -3 17 11 47 12 68 3 74 -5
3 -9 15 -9 28 0 12 -3 26 -7 30 -11 10 -12 37 -2 30 5 -3 9 2 9 11 0 10 -5 13
-12 9 -10 -6 -10 -4 0 8 9 11 9 17 2 20 -7 2 -11 31 -11 71 0 49 -3 66 -12 60
-7 -4 -6 0 2 10 11 14 11 17 0 17 -11 0 -11 2 1 10 11 7 12 10 2 10 -8 0 -13
10 -12 23 5 59 0 98 -12 91 -10 -6 -10 -4 0 8 10 13 10 17 -4 22 -13 5 -15 9
-6 18 9 9 8 16 -4 30 -14 15 -14 18 -3 23 12 5 17 44 9 65 -1 3 -2 9 0 15 1 5
-7 15 -16 22 -10 7 -12 13 -6 13 7 0 12 5 12 11 0 5 -5 7 -12 3 -7 -5 -8 -3
-3 7 13 20 13 77 0 73 -6 -3 -9 13 -7 41 3 28 -1 52 -9 62 -8 9 -9 14 -4 11 6
-3 10 7 11 24 1 16 -2 24 -6 18 -5 -8 -10 -9 -14 -2 -3 6 -2 13 3 17 7 4 7 15
1 30 -5 14 -6 25 -2 25 4 0 0 5 -8 10 -8 5 -10 10 -5 10 6 0 11 9 12 20 1 11
-2 18 -8 15 -5 -4 -9 -1 -9 4 0 6 4 11 10 11 11 0 9 28 -3 48 -5 6 -5 12 -1
12 3 0 1 7 -6 15 -10 12 -10 15 1 15 11 0 11 2 -1 10 -8 5 -11 10 -6 10 5 0 2
8 -5 17 -8 9 -9 14 -3 10 7 -4 12 2 12 18 0 14 -4 22 -9 20 -4 -3 -11 -1 -14
5 -4 6 -3 10 2 9 21 -4 23 2 7 18 -11 12 -13 18 -5 21 9 3 9 7 0 18 -9 11 -8
14 2 14 9 0 10 3 4 8 -5 4 -10 14 -10 22 0 8 5 18 10 22 6 5 5 8 -2 8 -8 0
-13 13 -13 30 0 17 -5 30 -11 30 -8 0 -7 6 2 17 11 13 11 17 2 20 -7 3 -13 9
-13 14 0 6 4 7 10 4 6 -3 7 1 4 9 -3 9 -9 14 -13 11 -4 -2 -5 9 -3 26 2 16 -2
37 -9 46 -10 12 -10 14 -1 9 6 -4 12 -3 12 3 0 5 -6 12 -12 14 -10 4 -10 6 0
6 6 1 12 6 12 12 0 5 -6 7 -12 3 -9 -5 -9 -2 1 9 12 15 11 17 -5 18 -12 0 -14
3 -6 6 10 4 10 8 0 21 -11 13 -10 15 4 9 15 -5 16 -4 6 13 -7 10 -16 16 -21
13 -5 -3 -3 4 5 16 10 16 10 23 0 33 -6 6 -12 17 -12 23 0 5 5 3 10 -5 8 -12
10 -10 10 8 0 16 -4 21 -12 16 -9 -5 -9 -2 1 9 12 15 9 20 -9 19 -3 0 -4 26
-3 59 1 33 -1 57 -6 55 -4 -3 -8 1 -8 9 0 8 3 12 7 10 4 -2 7 3 7 11 0 8 -6
13 -13 10 -9 -3 -10 3 -4 24 4 16 6 31 2 34 -3 4 -5 24 -5 46 0 23 -4 40 -11
40 -6 0 -4 5 4 10 12 8 12 10 1 10 -8 0 -11 7 -8 20 3 11 0 20 -6 20 -8 0 -8
3 -2 8 12 8 15 53 3 46 -13 -8 -9 11 5 25 10 10 9 12 -3 9 -11 -2 -14 5 -11
31 2 24 -1 31 -10 26 -9 -6 -10 -4 -3 6 5 8 9 23 9 35 1 22 20 47 45 57 9 3
10 6 3 6 -10 1 -10 7 -1 26 6 13 14 23 17 20 4 -2 13 6 21 18 12 21 12 21 -6
8 -10 -8 0 5 23 28 24 23 42 44 42 47 -1 3 8 17 20 30 12 13 21 29 21 35 0 5
6 7 13 3 8 -6 8 -3 -1 9 -12 14 -11 16 7 12 13 -2 19 0 15 6 -3 6 4 18 16 29
12 10 22 22 23 27 1 4 6 7 11 5 5 -2 3 5 -5 14 -8 10 -9 15 -4 13 6 -3 18 2
28 13 9 10 14 18 10 18 -5 0 -1 5 7 10 8 5 15 14 15 20 0 5 5 11 10 11 15 2
37 38 30 49 -4 6 1 7 12 3 16 -6 17 -5 3 12 -8 10 -10 16 -4 12 6 -3 20 1 30
9 17 14 17 15 2 10 -27 -8 -22 3 5 13 13 5 32 26 41 46 11 23 23 35 31 31 10
-3 12 0 8 11 -5 13 -2 15 13 9 15 -6 17 -5 6 6 -10 10 -8 16 12 33 23 20 26
25 26 46 0 5 5 7 10 4 6 -3 10 0 10 8 0 8 11 23 25 33 14 10 23 24 21 31 -3 6
2 14 11 17 9 4 13 13 9 22 -6 15 -4 15 11 3 15 -13 16 -12 11 9 -6 20 -4 22
10 10 12 -10 14 -10 8 0 -5 8 -1 12 10 12 16 0 16 1 -2 15 -18 15 -18 15 0 8
14 -4 17 -3 12 6 -5 8 0 14 13 18 16 4 19 9 11 18 -9 11 -6 12 11 8 19 -5 20
-4 10 15 -10 19 -9 21 6 15 12 -5 15 -2 10 10 -4 12 -2 14 10 10 12 -5 15 -2
10 10 -3 9 -1 19 5 23 7 4 8 3 4 -4 -4 -7 -2 -12 5 -12 7 0 9 10 6 25 -2 14
-2 23 1 21 8 -9 43 14 37 25 -4 5 2 9 12 10 10 0 13 3 6 6 -18 7 -16 20 2 20
8 0 15 -5 15 -10 0 -6 3 -7 6 -4 4 4 1 13 -6 22 -10 12 -10 15 5 15 11 0 15 5
12 15 -4 8 -1 17 5 21 7 4 8 3 4 -4 -10 -16 9 -15 23 1 8 10 7 17 -2 26 -9 10
-9 12 3 9 9 -2 14 3 12 12 -2 8 -1 12 3 8 12 -12 52 36 47 56 -3 12 -1 17 5
13 6 -4 17 1 24 10 12 14 12 16 0 8 -10 -6 -12 -4 -7 4 5 7 14 10 22 7 8 -3
13 -2 13 2 -4 22 2 42 11 37 6 -3 10 3 10 14 0 14 5 19 15 15 11 -5 13 -2 8
12 -4 11 -3 15 4 11 7 -5 9 1 6 15 -4 19 -3 20 6 8 10 -13 11 -13 12 0 1 8 1
18 0 22 0 4 6 5 14 2 10 -4 15 0 15 14 0 12 10 28 22 36 19 13 20 17 7 33 -13
16 -12 17 4 4 12 -9 17 -10 17 -2 0 7 4 10 9 7 11 -7 23 22 14 36 -3 7 -1 8 5
4 12 -7 35 28 24 38 -3 4 1 4 11 0 12 -4 16 -2 12 8 -4 9 4 22 20 32 20 13 25
23 21 39 -5 22 -5 22 11 2 15 -19 15 -19 11 7 -3 15 -2 25 3 23 4 -3 16 6 27
20 11 13 23 21 27 17 5 -4 5 -1 1 5 -4 7 2 22 13 35 24 25 27 48 9 68 -7 8 -4
7 8 -3 20 -16 20 -16 23 24 1 30 -1 39 -10 33 -8 -4 -9 -3 -5 4 4 7 15 12 24
13 11 0 12 3 5 6 -7 2 -13 12 -13 21 0 15 -2 15 -11 2 -9 -12 -10 -11 -6 8 3
12 -1 29 -9 36 -8 8 -14 23 -14 33 0 15 -2 16 -10 3 -8 -12 -10 -11 -10 8 0
12 -6 22 -14 22 -8 0 -17 7 -20 16 -6 15 -4 15 11 3 17 -13 17 -13 0 7 -9 11
-14 25 -10 29 5 5 0 4 -9 -3 -14 -11 -16 -10 -14 12 2 16 -1 23 -9 19 -7 -2
-16 1 -21 8 -5 8 -3 10 7 4 11 -7 12 -6 2 7 -7 8 -10 17 -7 21 3 3 -4 8 -15
12 -12 3 -21 15 -21 26 0 10 -4 19 -10 19 -5 0 -10 7 -10 16 0 9 -6 14 -14 11
-9 -4 -12 2 -10 19 1 13 -2 22 -7 18 -5 -3 -9 2 -9 10 0 9 -8 16 -17 16 -15 0
-16 2 -3 10 14 9 7 15 -14 11 -5 -1 -6 7 -3 18 4 16 0 19 -22 15 -23 -4 -24
-3 -7 7 17 11 17 13 -9 35 -16 13 -25 24 -21 24 4 0 0 7 -8 16 -9 8 -16 24
-16 35 0 10 -3 18 -7 18 -21 -3 -33 3 -33 17 0 8 -7 22 -15 31 -8 8 -12 20 -8
26 4 7 1 7 -9 -1 -14 -11 -16 -10 -11 7 4 17 1 21 -17 21 -16 0 -20 4 -16 15
7 19 -3 47 -15 39 -5 -3 -9 0 -9 6 0 6 -5 8 -12 4 -7 -4 -8 -3 -4 5 4 6 12 9
17 5 6 -3 5 3 -2 15 -10 15 -16 17 -22 8 -6 -8 -7 -3 -4 11 3 13 3 22 0 19
-10 -11 -31 18 -21 30 6 8 3 10 -11 6 -13 -3 -21 -1 -21 6 0 7 5 9 10 6 6 -3
10 -1 10 4 0 11 -15 15 -34 12 -5 -1 -3 6 5 15 13 15 12 16 -11 10 -20 -6 -22
-5 -10 4 11 9 12 13 3 17 -7 2 -13 12 -13 20 0 10 -6 14 -20 10 -11 -3 -23 -1
-26 4 -3 5 -2 9 3 8 4 -1 17 -1 28 0 19 2 18 3 -2 11 -13 5 -23 16 -23 23 0 8
-10 19 -22 26 -19 9 -19 11 -3 6 17 -4 15 -1 -7 19 -15 13 -24 27 -21 30 4 3
-2 6 -13 6 -15 0 -16 2 -5 9 11 7 9 10 -9 16 -18 6 -20 9 -9 16 10 6 11 9 2 9
-7 0 -13 7 -13 16 0 8 -4 12 -10 9 -5 -3 -10 1 -10 9 0 9 -5 16 -11 16 -5 0
-8 4 -4 9 3 6 -2 14 -10 19 -9 4 -17 18 -18 30 -1 15 -8 22 -21 22 -11 0 -17
3 -13 6 10 10 -17 32 -33 26 -13 -5 -13 -3 -1 11 8 10 9 17 3 17 -6 0 -14 -5
-17 -10 -4 -6 -14 -1 -25 12 -11 13 -20 19 -21 13z m19 -30 c-3 -3 -9 2 -12
12 -6 14 -5 15 5 6 7 -7 10 -15 7 -18z m-128 -17 c0 -4 -4 -8 -9 -8 -6 0 -12
4 -15 8 -3 5 1 9 9 9 8 0 15 -4 15 -9z m224 -54 c3 -8 2 -12 -4 -9 -6 3 -10
10 -10 16 0 14 7 11 14 -7z m-4057 -1296 c-3 -7 -5 -2 -5 12 0 14 2 19 5 13 2
-7 2 -19 0 -25z m3610 -3253 c0 -8 -4 -12 -9 -9 -5 3 -6 10 -3 15 9 13 12 11
12 -6z"/>
<path d="M3755 6040 c3 -5 8 -10 11 -10 2 0 4 5 4 10 0 6 -5 10 -11 10 -5 0
-7 -4 -4 -10z"/>
<path d="M6368 5763 c7 -3 16 -2 19 1 4 3 -2 6 -13 5 -11 0 -14 -3 -6 -6z"/>
<path d="M2445 5070 c-3 -6 1 -7 9 -4 18 7 21 14 7 14 -6 0 -13 -4 -16 -10z"/>
<path d="M6545 4591 c-3 -5 -2 -12 3 -15 5 -3 9 1 9 9 0 17 -3 19 -12 6z"/>
</g>
</svg>
